<?xml version="1.0" encoding="utf-8"?>
<!-- Generator: Adobe Illustrator 16.2.0, SVG Export Plug-In . SVG Version: 6.00 Build 0)  -->
<!DOCTYPE svg PUBLIC "-//W3C//DTD SVG 1.1//EN" "http://www.w3.org/Graphics/SVG/1.1/DTD/svg11.dtd">
<svg version="1.1" id="Layer_1" xmlns="http://www.w3.org/2000/svg" xmlns:xlink="http://www.w3.org/1999/xlink" x="0px" y="0px"
	 width="164px" height="51px" viewBox="0 0 164 51" enable-background="new 0 0 164 51" xml:space="preserve">
<g>
	<path fill="#BFA284" d="M5.818,5.474h16.462v25.801h20.773v14.199H5.818V5.474z"/>
	<path fill="#BFA284" d="M41.986,24.202L30.886,5.474h18.065l3.751,8.12h0.117l3.698-8.12h16.356L61.6,24.533l12.875,20.941H56.022
		l-4.976-9.561h-0.108l-4.916,9.561H29.335L41.986,24.202z"/>
	<path fill="#BFA284" d="M86.637,24.202L75.526,5.474h18.066l3.75,8.12h0.116l3.708-8.12h16.347l-11.265,19.059l12.867,20.941
		h-18.454l-4.966-9.561h-0.112l-4.922,9.561H73.976L86.637,24.202z"/>
	<path fill="#BFA284" d="M122.029,5.474h16.463v40h-16.463V5.474z"/>
	<path fill="#BFA284" d="M142.194,5.474h16.475v40h-16.475V5.474z"/>
</g>
<g>
</g>
<g>
</g>
<g>
</g>
<g>
</g>
<g>
</g>
<g>
</g>
<g>
</g>
<g>
</g>
<g>
</g>
<g>
</g>
<g>
</g>
<g>
</g>
<g>
</g>
<g>
</g>
<g>
</g>
</svg>
